<?xml version="1.0" encoding="utf-8"?>
<!-- Generator: Adobe Illustrator 16.0.0, SVG Export Plug-In . SVG Version: 6.00 Build 0)  -->
<!DOCTYPE svg PUBLIC "-//W3C//DTD SVG 1.1//EN" "http://www.w3.org/Graphics/SVG/1.1/DTD/svg11.dtd">
<svg version="1.1" id="Layer_1" xmlns="http://www.w3.org/2000/svg" xmlns:xlink="http://www.w3.org/1999/xlink" x="0px" y="0px"
	 width="37px" height="28px" viewBox="0 0 512 434.918" enable-background="new 0 0 512 434.918" xml:space="preserve">
<g>
	<defs>
		<rect id="SVGID_1_" width="512" height="434.918"/>
	</defs>
	<clipPath id="SVGID_2_">
		<use xlink:href="#SVGID_1_"  overflow="visible"/>
	</clipPath>
	<path clip-path="url(#SVGID_2_)" fill="#2C3746" d="M474.371,272.305v-84.472c0-18.204-14.809-33.016-33.012-33.016h-293.7
		c-4.156,0-7.519,3.368-7.519,7.52c0,4.156,3.363,7.519,7.519,7.519h293.7c9.91,0,17.973,8.066,17.973,17.977v84.21h-33.758v-17.227
		c0-18.082-14.711-32.793-32.793-32.793h-79.133c-18.082,0-32.793,14.711-32.793,32.793v17.227h-49.71v-17.227
		c0-18.082-14.711-32.793-32.793-32.793h-79.133c-18.082,0-32.793,14.711-32.793,32.793v17.227H52.668v-84.21
		c0-9.911,8.062-17.977,17.973-17.977h46.937c4.156,0,7.52-3.363,7.52-7.519c0-4.152-3.364-7.52-7.52-7.52H70.641
		c-18.203,0-33.012,14.812-33.012,33.016v84.472C16.496,274.641,0,292.598,0,314.34v113.059c0,4.156,3.367,7.52,7.52,7.52h110.058
		c4.156,0,7.52-3.363,7.52-7.52c0-4.152-3.364-7.521-7.52-7.521H15.039v-78.394H399.25c4.151,0,7.52-3.363,7.52-7.52
		c0-4.153-3.368-7.52-7.52-7.52H15.039v-12.102c0-15.032,12.227-27.262,27.258-27.262h427.402c15.031,0,27.262,12.229,27.262,27.262
		v12.102h-67.633c-4.156,0-7.52,3.366-7.52,7.52c0,4.156,3.363,7.52,7.52,7.52h67.633v78.394H147.66
		c-4.156,0-7.519,3.368-7.519,7.521c0,4.156,3.363,7.52,7.519,7.52H504.48c4.152,0,7.52-3.363,7.52-7.52V314.34
		C512,292.598,495.504,274.641,474.371,272.305 M295.895,254.816c0-9.789,7.965-17.755,17.754-17.755h79.133
		c9.788,0,17.754,7.966,17.754,17.755v17.227H295.895V254.816z M101.465,254.816c0-9.789,7.965-17.755,17.754-17.755h79.133
		c9.789,0,17.753,7.966,17.753,17.755v17.227h-114.64V254.816z"/>
	<path clip-path="url(#SVGID_2_)" fill="#F8951D" d="M195.926,130.59h40.269c4.153,0,7.52-3.363,7.52-7.52
		c0-4.152-3.367-7.519-7.52-7.519h-23.179l28.722-31.336c4.332-4.727,0.856-12.598-5.543-12.598h-36.488
		c-4.152,0-7.519,3.363-7.519,7.52c0,4.152,3.367,7.519,7.519,7.519h19.395l-28.723,31.336
		C186.047,122.723,189.523,130.59,195.926,130.59"/>
	<path clip-path="url(#SVGID_2_)" fill="#F8951D" d="M283.277,85.844h64.895c4.152,0,7.52-3.367,7.52-7.52
		c0-4.156-3.367-7.519-7.52-7.519h-47.801l53.344-58.203C358.051,7.871,354.57,0,348.172,0h-61.094c-4.098,0-7.52,3.422-7.52,7.52
		c0,4.097,3.422,7.519,7.52,7.519h44l-53.344,58.203C273.398,77.969,276.879,85.844,283.277,85.844"/>
	<path clip-path="url(#SVGID_2_)" fill="#F8951D" d="M101.465,272.043v-17.227c0,0,0.535-19.469,21.274-17.512h73.174
		c0,0,19.174-2.349,20.348,18.782v15.956C216.261,272.043,100.762,271.341,101.465,272.043"/>
	<path clip-path="url(#SVGID_2_)" fill="#F8951D" d="M295.552,272.043v-17.227c0,0,0.535-19.469,21.274-17.512H390
		c0,0,19.174-2.349,20.348,18.782v15.956C410.348,272.043,294.85,271.341,295.552,272.043"/>
</g>
</svg>
