<?xml version="1.0" encoding="utf-8"?>
<!-- Generator: Adobe Illustrator 16.0.0, SVG Export Plug-In . SVG Version: 6.00 Build 0)  -->
<!DOCTYPE svg PUBLIC "-//W3C//DTD SVG 1.1//EN" "http://www.w3.org/Graphics/SVG/1.1/DTD/svg11.dtd">
<svg version="1.1" id="Layer_1" xmlns="http://www.w3.org/2000/svg" xmlns:xlink="http://www.w3.org/1999/xlink" x="0px" y="0px"
	 width="37px" height="28px" viewBox="0 0 409.598 409.597" enable-background="new 0 0 409.598 409.597"
	 xml:space="preserve">
<g>
	<defs>
		<rect id="SVGID_1_" width="409.598" height="409.597"/>
	</defs>
	<clipPath id="SVGID_2_">
		<use xlink:href="#SVGID_1_"  overflow="visible"/>
	</clipPath>
	<path clip-path="url(#SVGID_2_)" fill="#F8951D" d="M24.18,83.031c1.863,1.215,4.207,1.43,6.265,0.59
		c2.063-0.832,3.578-2.621,4.09-4.785c1.434-6.223,6.883-10.571,13.25-10.571c2.485,0,4.918,0.676,7.02,1.961
		c3.222,1.953,7.425,0.93,9.371-2.293c1.969-3.23,0.937-7.429-2.293-9.382c-4.238-2.575-9.121-3.938-14.098-3.938
		c-10.117,0-19.094,5.477-23.797,13.961c-1.152-0.207-2.328-0.309-3.508-0.309C9.188,68.265,0,77.458,0,88.747
		c0,11.293,9.188,20.48,20.48,20.48h20.481c3.773,0,6.824-3.058,6.824-6.828c0-3.765-3.051-6.824-6.824-6.824H20.48
		c-3.769,0-6.828-3.066-6.828-6.828C13.652,83.679,19.723,80.165,24.18,83.031"/>
	<path clip-path="url(#SVGID_2_)" fill="#F8951D" d="M339.313,38.98c1.984-1.953,6.172-4.847,8.848-4.847
		c5.5,0,6.742,3.754,6.824,6.828c-0.004,0.004-0.004,0.011,0,0.031c-0.004,0.008-0.004,0.023,0,0.027v0.043
		c0.055,3.719,3.086,6.723,6.828,6.723c3.746,0,6.793-3.016,6.824-6.758c0.082-3.148,1.34-6.894,6.828-6.894
		c2.676,0,6.859,2.894,8.828,4.828c2.668,2.668,6.984,2.668,9.652,0c2.668-2.672,2.668-6.985,0-9.657
		c-0.902-0.898-9.094-8.824-18.48-8.824c-5.98,0-10.445,1.938-13.652,4.797c-3.211-2.859-7.676-4.797-13.656-4.797
		c-9.387,0-17.578,7.926-18.48,8.824c-2.66,2.657-2.66,6.958-0.004,9.629C332.309,41.594,336.621,41.621,339.313,38.98"/>
	<path clip-path="url(#SVGID_2_)" fill="#F8951D" d="M393.789,246.301c-5.551-16.407-21.121-27.849-38.801-27.849
		c-3.777,0-6.828,3.06-6.828,6.828c0,3.767,3.051,6.825,6.828,6.825c12.949,0,24.207,9.211,26.758,21.894
		c0.676,3.345,3.832,5.707,7.094,5.47c0.246-0.013,0.492-0.04,0.367-0.052c3.73,0.048,6.738,3.091,6.738,6.82
		c0,3.762-3.059,6.829-6.824,6.829h-75.094c-3.777,0-6.828,3.058-6.828,6.823c0,3.77,3.051,6.829,6.828,6.829h75.094
		c11.289,0,20.477-9.188,20.477-20.481C409.598,256.554,402.84,248.414,393.789,246.301"/>
	<path clip-path="url(#SVGID_2_)" fill="#2C3746" d="M204.801,0c-0.235,0-0.453,0.035-0.692,0.035h-0.007
		C118.836,0.39,54.613,64.804,54.613,150.187c0,41.676,26.801,77.946,52.715,113.028c22.035,29.832,42.86,58.011,42.86,84.945
		v40.961c0,11.289,9.187,20.476,20.476,20.476h68.27c11.289,0,20.477-9.187,20.477-20.476v-40.961c0-3.771-3.051-6.828-6.824-6.828
		H184.32c-3.777,0-6.828,3.058-6.828,6.828c0,3.766,3.051,6.823,6.828,6.823h61.438v34.138c0,3.762-3.059,6.823-6.824,6.823h-68.266
		c-3.77,0-6.828-3.062-6.828-6.823v-40.961c0-31.431-22.117-61.363-45.535-93.063c-24.594-33.3-50.039-67.734-50.039-104.91
		c0-69.722,47.144-123.937,112.906-134.519c-23.332,20.383-58.293,62.859-58.293,134.519c0,54.375,17.359,91.157,31.309,120.707
		c9.207,19.512,16.476,34.918,16.476,49.957c0,3.771,3.055,6.828,6.828,6.828c3.774,0,6.828-3.058,6.828-6.828
		c0-18.097-8.242-35.565-17.793-55.785c-13.367-28.315-29.996-63.562-29.996-114.879c0-75.492,41.657-115.761,61.442-130.621
		v301.285c0,3.771,3.05,6.828,6.824,6.828c3.777,0,6.828-3.058,6.828-6.828V19.566c19.777,14.86,61.441,55.133,61.441,130.621
		c0,51.317-16.637,86.563-30.005,114.879c-9.542,20.224-17.784,37.692-17.784,55.789c0,3.767,3.051,6.824,6.828,6.824
		c3.773,0,6.824-3.058,6.824-6.824c0-15.043,7.273-30.449,16.48-49.961c13.949-29.55,31.309-66.332,31.309-120.707
		c0-71.66-34.957-114.136-58.293-134.519c65.762,10.582,112.906,64.797,112.906,134.519c0,41.176-26.863,74.66-50.57,104.207
		c-17.988,22.414-34.973,43.59-38.105,65.489c-0.535,3.733,2.055,7.195,5.785,7.726c3.758,0.536,7.195-2.058,7.73-5.785
		c2.602-18.207,18.453-37.965,35.23-58.883c25.117-31.301,53.586-66.777,53.586-112.754C354.984,64.566,290.418,0,204.801,0"/>
</g>
</svg>
