<?xml version="1.0" encoding="utf-8"?>
<!-- Generator: Adobe Illustrator 16.0.0, SVG Export Plug-In . SVG Version: 6.00 Build 0)  -->
<!DOCTYPE svg PUBLIC "-//W3C//DTD SVG 1.1//EN" "http://www.w3.org/Graphics/SVG/1.1/DTD/svg11.dtd">
<svg version="1.1" id="Layer_1" xmlns="http://www.w3.org/2000/svg" xmlns:xlink="http://www.w3.org/1999/xlink" x="0px" y="0px"
	 width="25px" height="25px" viewBox="0 0 50 50" enable-background="new 0 0 50 50" xml:space="preserve">
<g>
	<g>
		<g>
			<defs>
				<rect id="SVGID_1_" x="1.294" width="48.706" height="48.706"/>
			</defs>
			<clipPath id="SVGID_2_">
				<use xlink:href="#SVGID_1_"  overflow="visible"/>
			</clipPath>
			<path clip-path="url(#SVGID_2_)" fill="#2E5571" d="M38.606,28.563c-1.138-1.141-2.994-1.141-4.132,0l-2.484,2.481
				c-0.774,0.778-1.019,1.888-0.737,2.878l-0.935,0.938c-0.003,0-0.003,0-0.003,0c-0.665,0.666-4.806-0.356-9.813-5.362
				c-5.006-5.006-6.025-9.147-5.359-9.813l0,0l0.938-0.938c0.263,0.075,0.538,0.115,0.813,0.115c0.747,0,1.497-0.284,2.066-0.853
				l2.478-2.484c1.141-1.141,1.141-2.994,0-4.134L11.897,1.85c-0.556-0.553-1.288-0.856-2.069-0.856S8.315,1.297,7.763,1.847
				L5.281,4.331C4.503,5.109,4.256,6.219,4.541,7.209c0,0-0.793,0.8-0.831,0.85c-2.641,2.934-3.134,7.556-1.384,13.081
				c1.712,5.406,5.406,11.138,10.403,16.131c4.997,4.997,10.725,8.691,16.137,10.406c2.169,0.688,4.203,1.028,6.051,1.028
				c3.027,0,5.547-0.919,7.355-2.728l0.522-0.52c0.259,0.075,0.531,0.113,0.813,0.113c0.778,0,1.513-0.304,2.063-0.851l2.484-2.484
				c1.141-1.141,1.141-2.993,0-4.131L38.606,28.563z M9.828,3.916l9.544,9.544l-2.481,2.484l0,0l-0.034-0.041l-4.738-4.734
				L7.347,6.397L9.828,3.916z M40.203,43.916L40.203,43.916c-2.104,2.103-5.815,2.449-10.459,0.978
				c-4.972-1.575-10.282-5.016-14.954-9.685c-4.668-4.675-8.106-9.981-9.681-14.953c-1.472-4.644-1.125-8.359,0.978-10.462l0,0
				L6.35,9.531l7.406,7.406l-0.678,0.678c0,0,0,0-0.003,0c-2.813,2.822,0.568,9.15,5.362,13.947
				c3.591,3.588,8.037,6.388,11.231,6.388c1.071,0,2.006-0.319,2.712-1.025l0,0l0.682-0.681l7.406,7.406L40.203,43.916z
				 M43.604,42.65l-9.544-9.544l2.481-2.481l9.543,9.544C46.084,40.169,43.606,42.65,43.604,42.65"/>
		</g>
	</g>
	<g>
		<g>
			<defs>
				<rect id="SVGID_3_" x="1.294" width="48.706" height="48.706"/>
			</defs>
			<clipPath id="SVGID_4_">
				<use xlink:href="#SVGID_3_"  overflow="visible"/>
			</clipPath>
			<path clip-path="url(#SVGID_4_)" fill="#F8961D" d="M39.669,22.122c0,0.806,0.653,1.459,1.459,1.459
				c0.81,0,1.463-0.653,1.463-1.459c0-3.932-1.528-7.625-4.31-10.403C35.503,8.94,31.81,7.413,27.878,7.413
				c-0.806,0-1.459,0.653-1.459,1.459c0,0.806,0.653,1.462,1.459,1.462c3.15,0,6.112,1.225,8.335,3.453
				C38.443,16.013,39.669,18.972,39.669,22.122"/>
		</g>
	</g>
	<g>
		<g>
			<defs>
				<rect id="SVGID_5_" x="1.294" width="48.706" height="48.706"/>
			</defs>
			<clipPath id="SVGID_6_">
				<use xlink:href="#SVGID_5_"  overflow="visible"/>
			</clipPath>
			<path clip-path="url(#SVGID_6_)" fill="#F8961D" d="M43.525,6.478C39.344,2.3,33.787,0,27.878,0
				c-0.803,0-1.459,0.653-1.459,1.459s0.653,1.459,1.459,1.459c5.128,0,9.947,1.997,13.575,5.625
				c3.625,3.625,5.625,8.447,5.625,13.575c0,0.806,0.653,1.459,1.459,1.459C49.347,23.581,50,22.925,50,22.122
				C50,16.212,47.7,10.656,43.525,6.478"/>
		</g>
	</g>
	<g>
		<g>
			<defs>
				<rect id="SVGID_7_" x="1.294" width="48.706" height="48.706"/>
			</defs>
			<clipPath id="SVGID_8_">
				<use xlink:href="#SVGID_7_"  overflow="visible"/>
			</clipPath>
			<path clip-path="url(#SVGID_8_)" fill="#F8961D" d="M27.878,14.819c-0.806,0-1.459,0.653-1.459,1.459
				c0,0.806,0.653,1.462,1.459,1.462l0,0c1.206,0,2.247,0.431,3.101,1.281c0.837,0.84,1.281,1.909,1.281,3.097
				c0,0.806,0.652,1.459,1.459,1.459l0,0c0.81,0,1.463-0.653,1.463-1.459c0-1.978-0.741-3.766-2.141-5.163
				C31.644,15.56,29.859,14.819,27.878,14.819L27.878,14.819z"/>
		</g>
	</g>
	<g>
		<g>
			<defs>
				<rect id="SVGID_9_" x="1.294" width="48.706" height="48.706"/>
			</defs>
			<clipPath id="SVGID_10_">
				<use xlink:href="#SVGID_9_"  overflow="visible"/>
			</clipPath>
			<path clip-path="url(#SVGID_10_)" fill="#F8961D" d="M9.788,2.741L6.269,6.169l10.572,10.572l3.425-3.522
				C20.266,13.219,9.641,2.741,9.788,2.741"/>
		</g>
	</g>
	<g>
		<g>
			<defs>
				<rect id="SVGID_11_" x="1.294" width="48.706" height="48.706"/>
			</defs>
			<clipPath id="SVGID_12_">
				<use xlink:href="#SVGID_11_"  overflow="visible"/>
			</clipPath>
			<path clip-path="url(#SVGID_12_)" fill="#F8961D" d="M36.703,29.656l-3.521,3.425l10.574,10.572l3.426-3.522
				C47.182,40.131,36.553,29.656,36.703,29.656"/>
		</g>
	</g>
</g>
</svg>
