<?xml version="1.0" encoding="utf-8"?>
<!-- Generator: Adobe Illustrator 16.0.0, SVG Export Plug-In . SVG Version: 6.00 Build 0)  -->
<!DOCTYPE svg PUBLIC "-//W3C//DTD SVG 1.1//EN" "http://www.w3.org/Graphics/SVG/1.1/DTD/svg11.dtd">
<svg version="1.1" id="Layer_1" xmlns="http://www.w3.org/2000/svg" xmlns:xlink="http://www.w3.org/1999/xlink" x="0px" y="0px"
	 width="37px" height="28px" viewBox="0 0 345.109 512" enable-background="new 0 0 345.109 512" xml:space="preserve">
<g>
	<defs>
		<rect id="SVGID_1_" width="345.109" height="512"/>
	</defs>
	<clipPath id="SVGID_2_">
		<use xlink:href="#SVGID_1_"  overflow="visible"/>
	</clipPath>
	<path clip-path="url(#SVGID_2_)" fill="#2C3746" d="M337.607,394.842c4.141,0,7.5-3.358,7.5-7.5v-50.73
		c0-44.344-37.97-60.463-39.585-61.128c-0.048-0.02-0.096-0.039-0.145-0.057l-89.668-34.726v-21.03
		c14.242-11.076,24.117-27.495,26.596-46.227c7.102-0.5,13.689-3.152,19.071-7.78c7.027-6.043,11.06-14.838,11.06-24.126
		c0-7.709-2.782-15.068-7.738-20.803V92.953C264.698,41.699,223,0,171.746,0S78.795,41.699,78.795,92.953v28.511
		c-5.01,5.677-7.734,12.664-7.734,20.074c0,9.29,4.03,18.085,11.059,24.129c5.377,4.626,11.962,7.275,19.061,7.776
		c2.499,19.083,12.662,36.114,28.117,47.338v19.921l-89.572,34.725c-0.047,0.018-0.094,0.037-0.141,0.056
		C37.968,276.147,0,292.267,0,336.61v156.245c0,10.555,8.587,19.143,19.142,19.143h71.457c4.143,0,7.501-3.358,7.501-7.501
		c0-4.142-3.358-7.5-7.501-7.5H74.463V349.301c0-4.142-3.359-7.5-7.501-7.5c-4.142,0-7.5,3.358-7.5,7.5v147.698h-40.32
		c-2.283,0-4.141-1.858-4.141-4.142V336.611c0-33.769,28.493-46.485,30.243-47.233l53.834-20.871l23.653,47.402
		c2.262,4.533,6.858,7.271,11.755,7.271c4.801,0,7.35-2.249,10.738-4.656l6.041,9.094l-22.421,132.468
		c-0.013,0.075-0.024,0.15-0.035,0.226c-0.542,3.925,0.671,7.958,3.244,10.789l23.543,25.899h-29.994
		c-4.143,0-7.501,3.358-7.501,7.501c0,4.142,3.358,7.5,7.501,7.5h200.365c10.556,0,19.143-8.588,19.143-19.143v-70.514
		c0-4.143-3.358-7.501-7.5-7.501c-4.144,0-7.501,3.358-7.501,7.501v70.514c0,2.283-1.858,4.142-4.142,4.142H285.65V349.301
		c0-4.142-3.359-7.5-7.501-7.5c-4.143,0-7.5,3.358-7.5,7.5v147.698h-81.187l23.544-25.899c2.572-2.83,3.785-6.861,3.244-10.787
		c-0.01-0.074-0.021-0.151-0.035-0.228l-22.421-132.468l6.041-9.094c3.34,2.372,5.913,4.656,10.737,4.656
		c4.909,0,9.497-2.747,11.755-7.27v-0.001l23.651-47.4l53.876,20.866c1.948,0.836,30.252,13.581,30.252,47.238v50.729
		C330.106,391.483,333.464,394.842,337.607,394.842 M251.596,154.292c-2.452,2.11-5.416,3.459-8.659,3.987v-33.477
		c8.618,1.4,14.5,8.55,14.5,16.737C257.436,146.452,255.307,151.1,251.596,154.292 M93.796,92.953
		c0-42.983,34.968-77.952,77.95-77.952c42.983,0,77.951,34.969,77.951,77.952v18.043c-2.18-0.663-4.441-1.101-6.762-1.307
		c0-7.238,0.062-5.842-23.613-31.294c-4.354-4.678-11.555-5.658-17.037-2.077c-26.13,17.069-58.005,25.643-87.415,23.532
		c-6.448-0.483-12.325,3.766-13.906,10.046c-2.389,0.274-5.127,0.921-7.168,1.615V92.953z M86.061,141.538
		c0-8.018,6.648-14.544,14.5-16.359v33.1C91.843,156.863,86.061,149.656,86.061,141.538 M115.562,164.184v-46.792v-2.465
		c32.375,1.896,66.318-7.722,93.739-25.282c10.857,11.657,16.737,17.773,18.635,20.099v54.44c0,30.447-24.826,55.277-55.278,55.277
		C138.464,219.461,115.562,192.934,115.562,164.184 M172.657,234.462c9.833,0,19.477-2.097,28.052-5.847v14.567l-28.181,34.785
		l-28.231-34.846v-14.036C153.409,232.759,163.148,234.462,172.657,234.462 M113.128,263.069l21.293-8.249l27.241,33.626
		c-13.852,9.837-25.228,17.918-26.485,18.812L113.128,263.069z M172.528,493.325l-28.745-31.623l21.709-128.263h14.071
		l21.71,128.263L172.528,493.325z M181.879,318.439h-18.703l-5.718-8.606l15.069-10.703l15.069,10.703L181.879,318.439z
		 M209.88,307.259c-0.549-0.39-12.232-8.69-26.517-18.834c6.199-7.651-1.053,1.299,27.234-33.617l21.331,8.262L209.88,307.259z"/>
	<polygon clip-path="url(#SVGID_2_)" fill="#FA950C" points="165.492,333.439 143.783,461.702 172.529,493.325 203.553,458 
		179.563,333.439 	"/>
	<polygon clip-path="url(#SVGID_2_)" fill="#FA950C" points="172.527,299.13 187.597,309.833 181.88,318.439 163.176,318.439 
		157.458,309.833 	"/>
</g>
</svg>
