<?xml version="1.0" encoding="utf-8"?>
<!-- Generator: Adobe Illustrator 16.0.0, SVG Export Plug-In . SVG Version: 6.00 Build 0)  -->
<!DOCTYPE svg PUBLIC "-//W3C//DTD SVG 1.1//EN" "http://www.w3.org/Graphics/SVG/1.1/DTD/svg11.dtd">
<svg version="1.1" id="Layer_1" xmlns="http://www.w3.org/2000/svg" xmlns:xlink="http://www.w3.org/1999/xlink" x="0px" y="0px"
	 width="25px" height="25px" viewBox="0 0 50 50" enable-background="new 0 0 50 50" xml:space="preserve">
<g>
	<g>
		<path fill="#2E5571" d="M8.4,13.726l-6.918,4.781c-0.34,0.235-0.524,0.611-0.529,0.996c-0.001,0.008-0.002,0.014-0.002,0.022
			l0.036,26.702c0,0.328,0.131,0.641,0.362,0.87c0.231,0.229,0.544,0.359,0.87,0.359c0.001,0,0.001,0,0.002,0l45.599-0.062
			c0.681,0,1.231-0.554,1.229-1.234l-0.035-26.659c0-0.073-0.018-0.183-0.044-0.245c-0.074-0.269-0.24-0.513-0.485-0.684
			l-6.881-4.799l-0.007,2.995l3.938,2.753L41.6,22.257v-0.001l-2.464,1.713l-3.776,2.625l-5.714,3.976l-3.872-3.002
			c-0.005-0.004-0.011-0.009-0.017-0.013c-0.433-0.324-1.043-0.337-1.493,0.013l-3.897,3.023l-5.807-4.013l-0.003,0.005
			l-9.963-6.893l-0.246-0.169l4.053-2.8V13.726L8.4,13.726z M3.417,21.875l14.907,10.301L3.447,43.715L3.417,21.875z M5.824,44.988
			L25.019,30.1l19.125,14.836L5.824,44.988z M31.685,32.152l14.87-10.338l0.028,21.896L31.685,32.152z"/>
	</g>
	<path fill="#F8961D" d="M8.401,22.324l2.463,1.708V9.886l28.271,0.241v13.841l2.464-1.712v-5.471l0.002,0.002v-3.001L41.6,13.785
		v-5.13c0-0.681-0.552-1.232-1.232-1.232H9.633c-0.68,0-1.231,0.551-1.231,1.232v5.071H8.4v2.995l0.001-0.001V22.324z"/>
	<path fill="#2E5571" d="M25.707,2.787c-0.422-0.294-0.98-0.295-1.403-0.002l-6.711,4.637h4.334l3.075-2.125l3.057,2.125h4.314
		L25.707,2.787z"/>
	<g>
		<g>
			<path fill="#F8961D" d="M33.34,14.813H16.662c-0.681,0-1.232,0.552-1.232,1.231c0,0.681,0.551,1.232,1.232,1.232H33.34
				c0.681,0,1.232-0.551,1.232-1.232C34.572,15.366,34.021,14.813,33.34,14.813z"/>
		</g>
	</g>
	<g>
		<g>
			<path fill="#F8961D" d="M33.34,21.219H16.662c-0.681,0-1.232,0.551-1.232,1.232c0,0.68,0.551,1.231,1.232,1.231H33.34
				c0.681,0,1.232-0.551,1.232-1.231C34.572,21.771,34.021,21.219,33.34,21.219z"/>
		</g>
	</g>
</g>
</svg>
