<?xml version="1.0" encoding="utf-8"?>
<!-- Generator: Adobe Illustrator 16.0.0, SVG Export Plug-In . SVG Version: 6.00 Build 0)  -->
<!DOCTYPE svg PUBLIC "-//W3C//DTD SVG 1.1//EN" "http://www.w3.org/Graphics/SVG/1.1/DTD/svg11.dtd">
<svg version="1.1" id="Layer_1" xmlns="http://www.w3.org/2000/svg" xmlns:xlink="http://www.w3.org/1999/xlink" x="0px" y="0px"
	 width="37px" height="28px" viewBox="0 0 480 432" enable-background="new 0 0 480 432" xml:space="preserve">
<g>
	<defs>
		<rect id="SVGID_1_" width="480" height="432"/>
	</defs>
	<clipPath id="SVGID_2_">
		<use xlink:href="#SVGID_1_"  overflow="visible"/>
	</clipPath>
	<path clip-path="url(#SVGID_2_)" fill="#2C3746" d="M472,96H365.336L327.383,4.922C326.141,1.941,323.23,0,320,0H184
		c-4.418,0-8,3.582-8,8v32c0,4.418,3.582,8,8,8h106.457l18,48H248c-4.418,0-8,3.582-8,8v48c0,4.418,3.582,8,8,8h8.457L272,424.473
		c0.25,4.23,3.758,7.535,8,7.527h160c4.242,0.008,7.75-3.297,8-7.527L463.543,160H472c4.418,0,8-3.582,8-8v-48
		C480,99.582,476.418,96,472,96 M303.496,37.191c-1.172-3.125-4.16-5.195-7.496-5.191H192V16h122.664L348,96h-22.457L303.496,37.191
		z M437.16,336h-34.969C416.051,323.898,424,306.398,424,288s-7.949-35.898-21.809-48h40.617L437.16,336z M408,288
		c0,26.508-21.492,48-48,48s-48-21.492-48-48s21.492-48,48-48C386.5,240.027,407.973,261.5,408,288 M296,288
		c0.012,18.395,7.961,35.891,21.809,48H282.84l-5.648-96h40.617C303.961,252.109,296.012,269.605,296,288 M287.543,416l-3.758-64
		h152.43l-3.758,64H287.543z M443.754,224H276.246l-3.758-64h175.023L443.754,224z M464,144H256v-32h208V144z"/>
</g>
<g>
	<defs>
		<rect id="SVGID_3_" width="480" height="432"/>
	</defs>
	<clipPath id="SVGID_4_">
		<use xlink:href="#SVGID_3_"  overflow="visible"/>
	</clipPath>
	<path clip-path="url(#SVGID_4_)" fill="#F8951D" d="M408,384h-24c-4.418,0-8,3.582-8,8s3.582,8,8,8h24c4.418,0,8-3.582,8-8
		S412.418,384,408,384"/>
	<path clip-path="url(#SVGID_4_)" fill="#F8951D" d="M352,384h-8c-4.418,0-8,3.582-8,8s3.582,8,8,8h8c4.418,0,8-3.582,8-8
		S356.418,384,352,384"/>
	<path clip-path="url(#SVGID_4_)" fill="#2C3746" d="M24,432h208c13.254,0,24-10.746,24-24v-32
		c-0.016-8.219-4.242-15.855-11.199-20.23c4.273-7.266,4.273-16.273,0-23.539c6.957-4.375,11.184-12.012,11.199-20.23
		c0-43.258-29.922-88-80-88H88c-57.777,0-88,44.273-88,88c0.016,8.219,4.242,15.855,11.199,20.23
		c-4.273,7.266-4.273,16.273,0,23.539C4.242,360.145,0.016,367.781,0,376v32C0,421.254,10.746,432,24,432 M240,408
		c0,4.418-3.582,8-8,8H24c-4.418,0-8-3.582-8-8v-32c0-4.418,3.582-8,8-8h62.953l118.985,31.727c3.667,0.984,7.523-0.75,9.222-4.152
		L228.945,368H232c4.418,0,8,3.582,8,8V408z M24,344c0-4.418,3.582-8,8-8h192c4.418,0,8,3.582,8,8s-3.582,8-8,8H32
		C27.582,352,24,348.418,24,344 M211.055,368l-7.293,14.594L149.047,368H211.055z M88,240h88c44.145,0,64,42.105,64,72
		c0,4.418-3.582,8-8,8H24c-4.418,0-8-3.582-8-8C16,283.055,35.199,240,88,240"/>
	<path clip-path="url(#SVGID_4_)" fill="#F8951D" d="M88,272h8c4.418,0,8-3.582,8-8s-3.582-8-8-8h-8c-4.418,0-8,3.582-8,8
		S83.582,272,88,272"/>
	<path clip-path="url(#SVGID_4_)" fill="#F8951D" d="M56,304h8c4.418,0,8-3.582,8-8s-3.582-8-8-8h-8c-4.418,0-8,3.582-8,8
		S51.582,304,56,304"/>
	<path clip-path="url(#SVGID_4_)" fill="#F8951D" d="M96,296c0,4.418,3.582,8,8,8h8c4.418,0,8-3.582,8-8s-3.582-8-8-8h-8
		C99.582,288,96,291.582,96,296"/>
	<path clip-path="url(#SVGID_4_)" fill="#F8951D" d="M152,304h8c4.418,0,8-3.582,8-8s-3.582-8-8-8h-8c-4.418,0-8,3.582-8,8
		S147.582,304,152,304"/>
	<path clip-path="url(#SVGID_4_)" fill="#F8951D" d="M200,304h8c4.418,0,8-3.582,8-8s-3.582-8-8-8h-8c-4.418,0-8,3.582-8,8
		S195.582,304,200,304"/>
	<path clip-path="url(#SVGID_4_)" fill="#F8951D" d="M128,272h8c4.418,0,8-3.582,8-8s-3.582-8-8-8h-8c-4.418,0-8,3.582-8,8
		S123.582,272,128,272"/>
	<path clip-path="url(#SVGID_4_)" fill="#F8951D" d="M168,272h8c4.418,0,8-3.582,8-8s-3.582-8-8-8h-8c-4.418,0-8,3.582-8,8
		S163.582,272,168,272"/>
</g>
</svg>
