<?xml version="1.0" encoding="utf-8"?>
<!-- Generator: Adobe Illustrator 16.0.0, SVG Export Plug-In . SVG Version: 6.00 Build 0)  -->
<!DOCTYPE svg PUBLIC "-//W3C//DTD SVG 1.1//EN" "http://www.w3.org/Graphics/SVG/1.1/DTD/svg11.dtd">
<svg version="1.1" id="Layer_1" xmlns="http://www.w3.org/2000/svg" xmlns:xlink="http://www.w3.org/1999/xlink" x="0px" y="0px"
	 width="37px" height="28px" viewBox="0 0 511.532 511.999" enable-background="new 0 0 511.532 511.999"
	 xml:space="preserve">
<g>
	<defs>
		<rect id="SVGID_1_" width="511.532" height="511.999"/>
	</defs>
	<clipPath id="SVGID_2_">
		<use xlink:href="#SVGID_1_"  overflow="visible"/>
	</clipPath>
	<path clip-path="url(#SVGID_2_)" fill="#2C3746" d="M125.535,153.902C56.315,153.902,0,210.217,0,279.436
		c0,42.979,20.445,89.187,60.765,137.343c5.992,7.155,11.962,13.785,17.691,19.833c-26.034,7.106-41.666,19.873-41.666,34.774
		c0,26.38,45.722,40.613,88.742,40.613s88.741-14.234,88.741-40.613c0-14.89-15.626-27.659-41.643-34.769
		c10.394-10.974,21.578-23.883,32.189-38.282c2.46-3.339,1.748-8.039-1.589-10.498c-3.337-2.457-8.039-1.747-10.498,1.591
		c-12.813,17.387-26.68,32.667-38.781,44.804c-1.388,0.707-2.547,1.831-3.275,3.249c-10.84,10.653-19.962,18.557-25.138,22.874
		c-5.119-4.276-14.102-12.072-24.803-22.587c-0.768-1.683-2.117-3.003-3.763-3.738c-34.007-34.205-81.957-93.302-81.957-154.592
		c0-60.939,49.579-110.519,110.519-110.519s110.519,49.579,110.519,110.519c0,26.613-9.068,55.354-26.952,85.423
		c-2.119,3.564-0.949,8.171,2.615,10.29c3.563,2.118,8.171,0.949,10.29-2.614c19.284-32.424,29.063-63.747,29.063-93.099
		C251.07,210.217,194.755,153.902,125.535,153.902 M125.535,477.54c1.621,0,3.242-0.522,4.595-1.569
		c0.921-0.713,13.467-10.497,30.19-26.849c25.322,5.165,38.938,15.107,38.938,22.265c0,5.345-7.326,11.651-19.119,16.456
		c-14.464,5.896-33.857,9.142-54.607,9.142c-45.006,0-73.726-15.162-73.726-25.598c0-7.167,13.62-17.104,38.956-22.27
		c16.816,16.448,29.38,26.234,30.178,26.854C122.292,477.018,123.914,477.54,125.535,477.54"/>
	<path clip-path="url(#SVGID_2_)" fill="#FA950C" d="M82.353,259.211c-3.984-1.141-8.144,1.16-9.288,5.146
		c-1.401,4.883-2.112,9.956-2.112,15.08c0,30.097,24.485,54.582,54.582,54.582c30.096,0,54.582-24.485,54.582-54.582
		s-24.486-54.583-54.582-54.583c-11.875,0-23.167,3.749-32.655,10.842c-3.32,2.483-4,7.189-1.518,10.51
		c2.484,3.32,7.189,3.999,10.51,1.517c6.871-5.137,15.053-7.853,23.662-7.853c21.817,0,39.566,17.749,39.566,39.566
		s-17.749,39.566-39.566,39.566s-39.566-17.75-39.566-39.566c0-3.723,0.514-7.403,1.53-10.938
		C88.642,264.514,86.338,260.355,82.353,259.211"/>
	<path clip-path="url(#SVGID_2_)" fill="#2C3746" d="M483.252,245.747c0-11.896-11.182-21.803-30.527-27.626
		c3.819-4.099,7.755-8.514,11.701-13.229c31.257-37.332,47.106-73.222,47.106-106.672c0-54.158-44.061-98.22-98.219-98.22
		c-39.563,0-75.087,23.546-90.497,59.987c-1.615,3.819,0.171,8.224,3.988,9.839c3.819,1.614,8.225-0.171,9.84-3.989
		c13.059-30.872,43.151-50.821,76.669-50.821c45.878,0,83.203,37.326,83.203,83.205c0,62.042-65.138,121.484-83.206,136.775
		c-3.981-3.365-10.25-8.873-17.6-16.077c-0.732-1.453-1.917-2.605-3.339-3.318c-25.924-26.102-62.264-70.968-62.264-117.38
		c0-4.148-3.359-7.508-7.508-7.508c-4.146,0-7.508,3.36-7.508,7.508c0,33.449,15.85,69.339,47.109,106.672
		c3.944,4.711,7.877,9.126,11.694,13.224c-19.354,5.815-30.526,15.713-30.526,27.631c0,10.052,8.153,18.911,22.962,24.944
		c12.669,5.164,29.354,8.008,46.98,8.008c17.625,0,34.311-2.844,46.98-8.008C475.099,264.657,483.252,255.799,483.252,245.747
		 M413.312,263.683c-35.539,0-54.927-11.849-54.927-17.936c0-3.966,8.82-11.224,27.652-15.228
		c12.671,12.329,22.074,19.656,22.682,20.126c1.353,1.047,2.974,1.57,4.595,1.57c1.62,0,3.241-0.523,4.595-1.57
		c0.606-0.469,10.01-7.796,22.681-20.124c8.39,1.789,15.659,4.41,20.744,7.506c4.322,2.634,6.903,5.52,6.903,7.72
		C468.236,251.833,448.851,263.683,413.312,263.683"/>
	<path clip-path="url(#SVGID_2_)" fill="#FA950C" d="M457.002,98.22c0-24.089-19.598-43.688-43.688-43.688
		c-24.09,0-43.688,19.598-43.688,43.688c0,24.089,19.598,43.688,43.688,43.688S457.002,122.31,457.002,98.22 M384.642,98.22
		c0-15.811,12.862-28.673,28.673-28.673s28.674,12.862,28.674,28.673c0,15.81-12.863,28.672-28.674,28.672
		C397.503,126.892,384.642,114.03,384.642,98.22"/>
	<path clip-path="url(#SVGID_2_)" fill="#2C3746" d="M315.924,253.255c4.147,0,7.508-3.361,7.508-7.508s-3.36-7.508-7.508-7.508
		h-3.428c-2.495,0-5.004,0.165-7.458,0.492c-4.109,0.546-6.998,4.321-6.451,8.432c0.502,3.775,3.728,6.519,7.433,6.519
		c0.33,0,0.663-0.021,1-0.066c1.8-0.239,3.642-0.36,5.478-0.36L315.924,253.255L315.924,253.255z"/>
	<path clip-path="url(#SVGID_2_)" fill="#2C3746" d="M291.103,463.495h-0.035l-9.916,0.046c-4.146,0.019-7.49,3.396-7.474,7.541
		c0.018,4.136,3.377,7.475,7.507,7.475h0.035l9.916-0.046c4.146-0.019,7.492-3.396,7.474-7.541
		C298.592,466.834,295.233,463.495,291.103,463.495"/>
	<path clip-path="url(#SVGID_2_)" fill="#2C3746" d="M324.833,350.505c4.147,0,7.508-3.36,7.508-7.508
		c0-4.146-3.36-7.508-7.508-7.508h-9.916c-4.146,0-7.508,3.361-7.508,7.508c0,4.147,3.361,7.508,7.508,7.508H324.833z"/>
	<path clip-path="url(#SVGID_2_)" fill="#2C3746" d="M268.594,272.139c1.325,0.951,2.856,1.41,4.373,1.41
		c2.336,0,4.637-1.087,6.105-3.129c1.629-2.27,3.498-4.381,5.55-6.275c3.048-2.811,3.24-7.561,0.429-10.609
		c-2.811-3.046-7.559-3.238-10.609-0.428c-2.799,2.58-5.345,5.458-7.566,8.552C264.456,265.029,265.226,269.72,268.594,272.139"/>
	<path clip-path="url(#SVGID_2_)" fill="#2C3746" d="M330.769,463.314h-0.035l-9.916,0.045c-4.146,0.017-7.49,3.396-7.474,7.542
		c0.019,4.135,3.377,7.474,7.507,7.474h0.035l9.915-0.045c4.146-0.019,7.492-3.396,7.475-7.542
		C338.257,466.652,334.898,463.314,330.769,463.314"/>
	<path clip-path="url(#SVGID_2_)" fill="#2C3746" d="M251.438,463.675h-0.035l-9.916,0.045c-4.147,0.02-7.492,3.396-7.474,7.542
		c0.019,4.135,3.376,7.474,7.507,7.474h0.035l9.916-0.045c4.146-0.02,7.492-3.396,7.474-7.542
		C258.927,467.014,255.568,463.675,251.438,463.675"/>
	<path clip-path="url(#SVGID_2_)" fill="#2C3746" d="M286.583,343.037c2.492,0,4.931-1.239,6.357-3.504
		c2.213-3.507,1.164-8.144-2.345-10.355c-2.359-1.487-4.577-3.227-6.593-5.163c-2.988-2.875-7.743-2.78-10.616,0.206
		c-2.875,2.988-2.782,7.741,0.206,10.615c2.748,2.643,5.772,5.012,8.991,7.042C283.828,342.663,285.213,343.037,286.583,343.037"/>
	<path clip-path="url(#SVGID_2_)" fill="#2C3746" d="M272.139,302.287c-0.503-2.588-0.76-5.251-0.76-7.915l0.003-0.417
		c0.049-4.146-3.273-7.546-7.42-7.594c-0.029-0.001-0.06-0.001-0.089-0.001c-4.106,0-7.458,3.304-7.506,7.421l-0.004,0.591
		c0,3.626,0.351,7.255,1.037,10.786c0.698,3.585,3.842,6.073,7.361,6.073c0.477,0,0.959-0.046,1.443-0.141
		C270.275,310.299,272.932,306.356,272.139,302.287"/>
	<path clip-path="url(#SVGID_2_)" fill="#2C3746" d="M364.499,350.505c4.147,0,7.508-3.36,7.508-7.508
		c0-4.146-3.36-7.508-7.508-7.508h-9.916c-4.146,0-7.508,3.361-7.508,7.508c0,4.147,3.361,7.508,7.508,7.508H364.499z"/>
	<path clip-path="url(#SVGID_2_)" fill="#2C3746" d="M480.383,364.176c2.219,0,4.416-0.979,5.898-2.854
		c2.568-3.256,2.014-7.978-1.24-10.546c-2.893-2.283-5.985-4.357-9.191-6.162c-3.609-2.037-8.191-0.758-10.226,2.855
		c-2.035,3.611-0.757,8.191,2.856,10.227c2.528,1.426,4.972,3.063,7.256,4.865C477.114,363.649,478.753,364.176,480.383,364.176"/>
	<path clip-path="url(#SVGID_2_)" fill="#2C3746" d="M448.707,462.284c-2.459,0.341-4.978,0.52-7.488,0.528l-1.405,0.008
		c-4.147,0.021-7.491,3.398-7.472,7.543c0.021,4.135,3.378,7.473,7.508,7.473h0.036l1.402-0.008
		c3.172-0.014,6.358-0.239,9.474-0.669c4.108-0.568,6.978-4.359,6.41-8.465C456.604,464.587,452.808,461.712,448.707,462.284"/>
	<path clip-path="url(#SVGID_2_)" fill="#2C3746" d="M479.692,447.322c-2.106,2.008-4.387,3.865-6.778,5.523
		c-3.406,2.362-4.254,7.039-1.893,10.448c1.458,2.104,3.798,3.231,6.177,3.231c1.476,0,2.967-0.435,4.271-1.338
		c3.026-2.1,5.913-4.451,8.58-6.992c3.002-2.86,3.116-7.613,0.257-10.614C487.445,444.577,482.692,444.462,479.692,447.322"/>
	<path clip-path="url(#SVGID_2_)" fill="#2C3746" d="M504.919,411.118c-4.069-0.767-8,1.913-8.768,5.988
		c-0.538,2.856-1.306,5.691-2.28,8.428c-1.392,3.905,0.645,8.199,4.551,9.593c0.833,0.297,1.686,0.438,2.521,0.438
		c3.084,0,5.977-1.916,7.072-4.988c1.237-3.47,2.211-7.067,2.894-10.692C511.675,415.81,508.993,411.884,504.919,411.118"/>
	<path clip-path="url(#SVGID_2_)" fill="#2C3746" d="M495.513,372.971c-3.757,1.753-5.382,6.221-3.629,9.979
		c1.231,2.634,2.261,5.386,3.062,8.176c0.944,3.294,3.949,5.438,7.213,5.438c0.687,0,1.383-0.095,2.074-0.293
		c3.986-1.145,6.289-5.303,5.146-9.288c-1.018-3.544-2.324-7.037-3.886-10.384C503.738,372.842,499.274,371.219,495.513,372.971"/>
	<path clip-path="url(#SVGID_2_)" fill="#2C3746" d="M404.166,350.505c4.146,0,7.508-3.36,7.508-7.508
		c0-4.146-3.361-7.508-7.508-7.508h-9.917c-4.146,0-7.508,3.361-7.508,7.508c0,4.147,3.361,7.508,7.508,7.508H404.166z"/>
	<path clip-path="url(#SVGID_2_)" fill="#2C3746" d="M370.435,463.134h-0.035l-9.916,0.046c-4.146,0.018-7.492,3.396-7.474,7.541
		c0.019,4.136,3.376,7.476,7.507,7.476h0.034l9.917-0.047c4.146-0.019,7.491-3.396,7.474-7.541
		C377.923,466.473,374.564,463.134,370.435,463.134"/>
	<path clip-path="url(#SVGID_2_)" fill="#2C3746" d="M440.965,350.505c0.85,0,1.692,0.021,2.531,0.056
		c0.114,0.007,0.227,0.009,0.339,0.009c3.993,0,7.317-3.146,7.494-7.176c0.184-4.144-3.025-7.65-7.168-7.832
		c-1.062-0.048-2.137-0.071-3.196-0.071h-7.051c-4.147,0-7.509,3.361-7.509,7.508c0,4.147,3.361,7.508,7.509,7.508L440.965,350.505
		L440.965,350.505z"/>
	<path clip-path="url(#SVGID_2_)" fill="#2C3746" d="M410.1,462.955h-0.035L400.148,463c-4.146,0.018-7.491,3.396-7.474,7.542
		c0.019,4.135,3.376,7.475,7.507,7.475h0.035l9.916-0.046c4.146-0.02,7.492-3.396,7.474-7.542
		C417.589,466.293,414.23,462.955,410.1,462.955"/>
</g>
</svg>
