<?xml version="1.0" encoding="utf-8"?>
<!-- Generator: Adobe Illustrator 16.0.0, SVG Export Plug-In . SVG Version: 6.00 Build 0)  -->
<!DOCTYPE svg PUBLIC "-//W3C//DTD SVG 1.1//EN" "http://www.w3.org/Graphics/SVG/1.1/DTD/svg11.dtd">
<svg version="1.1" id="Layer_1" xmlns="http://www.w3.org/2000/svg" xmlns:xlink="http://www.w3.org/1999/xlink" x="0px" y="0px"
	 width="34px" height="28px" viewBox="0 0 27.963 14.88" enable-background="new 0 0 27.963 14.88" xml:space="preserve">
<g>
	<defs>
		<rect id="SVGID_1_" width="27.963" height="14.88"/>
	</defs>
	<clipPath id="SVGID_2_">
		<use xlink:href="#SVGID_1_"  overflow="visible"/>
	</clipPath>
	<path clip-path="url(#SVGID_2_)" d="M19.465,11.743H10.32c-0.218,0-0.398-0.18-0.398-0.399c0-0.222,0.18-0.397,0.398-0.397h9.145
		c0.223,0,0.402,0.176,0.402,0.397C19.867,11.563,19.688,11.743,19.465,11.743"/>
	<path clip-path="url(#SVGID_2_)" fill="#2C3746" d="M8.148,13.918c-1.421,0-2.578-1.152-2.578-2.574
		c0-1.423,1.157-2.578,2.578-2.578c1.418,0,2.575,1.155,2.575,2.578C10.723,12.766,9.566,13.918,8.148,13.918 M8.148,9.567
		c-0.98,0-1.777,0.797-1.777,1.776c0,0.981,0.797,1.778,1.777,1.778c0.977,0,1.774-0.797,1.774-1.778
		C9.922,10.364,9.125,9.567,8.148,9.567"/>
	<path clip-path="url(#SVGID_2_)" fill="#2C3746" d="M21.645,13.918c-1.422,0-2.578-1.152-2.578-2.574
		c0-1.423,1.156-2.578,2.578-2.578s2.574,1.155,2.574,2.578C24.219,12.766,23.062,13.918,21.645,13.918 M21.645,9.567
		c-0.98,0-1.777,0.797-1.777,1.776c0,0.981,0.797,1.778,1.777,1.778c0.979,0,1.777-0.797,1.777-1.778
		C23.422,10.364,22.621,9.567,21.645,9.567"/>
</g>
<g>
	<defs>
		<rect id="SVGID_3_" width="27.84" height="14.88"/>
	</defs>
	<clipPath id="SVGID_4_">
		<use xlink:href="#SVGID_3_"  overflow="visible"/>
	</clipPath>
	<path clip-path="url(#SVGID_4_)" fill="#2C3746" d="M19.469,11.743h-9.145c-0.222,0-0.402-0.18-0.402-0.399
		c0-0.222,0.18-0.397,0.402-0.397h9.145c0.223,0,0.402,0.176,0.402,0.397C19.871,11.563,19.691,11.743,19.469,11.743"/>
	<path clip-path="url(#SVGID_4_)" fill="#2C3746" d="M25.738,11.743h-1.922c-0.219,0-0.398-0.18-0.398-0.399
		c0-0.222,0.18-0.397,0.398-0.397h1.922c0.496,0,0.914-0.356,0.988-0.85l0.426-2.729c0.031-0.192-0.016-0.379-0.133-0.535
		c-0.117-0.153-0.289-0.25-0.48-0.274l-5.328-0.652C21.133,5.899,21.062,5.868,21,5.817L16.184,1.77
		c-0.316-0.269-0.719-0.414-1.137-0.414H7.512c-0.371,0-0.715,0.187-0.914,0.5l-2.25,3.523C4.297,5.461,4.215,5.52,4.125,5.547
		l-2.72,0.821C1,6.489,0.746,6.895,0.813,7.312l0.379,2.439c0.11,0.691,0.696,1.191,1.395,1.191h3.382
		c0.22,0,0.399,0.18,0.399,0.401c0,0.22-0.179,0.399-0.399,0.399H2.583c-1.094,0-2.016-0.785-2.184-1.867L0.021,7.433
		c-0.125-0.807,0.371-1.597,1.152-1.831L3.75,4.825l2.176-3.403c0.347-0.543,0.941-0.867,1.586-0.867h7.539
		c0.602,0,1.188,0.215,1.648,0.602l4.728,3.972l5.21,0.633c0.41,0.051,0.773,0.258,1.02,0.59c0.25,0.328,0.352,0.731,0.289,1.141
		l-0.43,2.729C27.379,11.102,26.633,11.743,25.738,11.743"/>
</g>
<g>
	<defs>
		<rect id="SVGID_5_" width="27.963" height="14.88"/>
	</defs>
	<clipPath id="SVGID_6_">
		<use xlink:href="#SVGID_5_"  overflow="visible"/>
	</clipPath>
	<path clip-path="url(#SVGID_6_)" fill="#F8951D" d="M16.93,6.219H7.754c-0.223,0-0.399-0.179-0.399-0.398
		c0-0.223,0.176-0.403,0.399-0.403h9.176c0.219,0,0.398,0.18,0.398,0.403C17.328,6.04,17.148,6.219,16.93,6.219"/>
	<path clip-path="url(#SVGID_6_)" fill="#F8951D" d="M9.943,11.334c0,1-0.81,1.81-1.81,1.81c-0.999,0-1.81-0.81-1.81-1.81
		c0-0.999,0.811-1.811,1.81-1.811C9.133,9.523,9.943,10.335,9.943,11.334"/>
	<path clip-path="url(#SVGID_6_)" fill="#F8951D" d="M23.419,11.334c0,1-0.812,1.81-1.812,1.81c-0.998,0-1.809-0.81-1.809-1.81
		c0-0.999,0.811-1.811,1.809-1.811C22.607,9.523,23.419,10.335,23.419,11.334"/>
</g>
</svg>
