<?xml version="1.0" encoding="utf-8"?>
<!-- Generator: Adobe Illustrator 16.0.0, SVG Export Plug-In . SVG Version: 6.00 Build 0)  -->
<!DOCTYPE svg PUBLIC "-//W3C//DTD SVG 1.1//EN" "http://www.w3.org/Graphics/SVG/1.1/DTD/svg11.dtd">
<svg version="1.1" id="Capa_1" xmlns="http://www.w3.org/2000/svg" xmlns:xlink="http://www.w3.org/1999/xlink" x="0px" y="0px"
	 width="25px" height="25px" viewBox="0 0 50 50" enable-background="new 0 0 50 50" xml:space="preserve">
<path fill="#2E5571" stroke="#2E5571" stroke-miterlimit="10" d="M47.07,17.034l-11.104-5.182c-0.012-0.004-0.022-0.007-0.033-0.012
	c-0.032-0.013-0.064-0.021-0.096-0.03c-0.026-0.007-0.053-0.014-0.079-0.018c-0.033-0.006-0.065-0.006-0.102-0.006
	c-0.027,0-0.054,0-0.08,0.002c-0.035,0.002-0.063,0.011-0.094,0.018c-0.029,0.006-0.061,0.014-0.09,0.024
	c-0.01,0.003-0.02,0.004-0.03,0.009l-10.071,4.316L15.22,11.841c-0.007-0.002-0.014-0.002-0.021-0.006
	c-0.029-0.013-0.06-0.018-0.09-0.026c-0.028-0.007-0.056-0.017-0.086-0.02c-0.031-0.003-0.061-0.002-0.093-0.002
	c-0.028,0-0.057-0.002-0.085,0.001c-0.031,0.003-0.063,0.012-0.094,0.019c-0.026,0.007-0.054,0.013-0.082,0.021
	c-0.006,0.003-0.012,0.003-0.018,0.006L3.548,16.276c-0.28,0.112-0.465,0.384-0.465,0.686v31.831c0,0.244,0.123,0.475,0.325,0.611
	c0.125,0.085,0.27,0.127,0.416,0.127c0.092,0,0.186-0.018,0.276-0.053l10.819-4.326L25,49.475c0.01,0.004,0.021,0.004,0.031,0.008
	c0.086,0.031,0.172,0.053,0.261,0.053c0.088,0,0.176-0.02,0.26-0.053c0.01-0.004,0.021-0.004,0.03-0.008l10.083-4.32l10.819,4.327
	c0.088,0.035,0.182,0.053,0.275,0.053c0.146,0,0.29-0.044,0.416-0.128c0.198-0.137,0.322-0.366,0.322-0.61V17.705
	C47.498,17.417,47.331,17.155,47.07,17.034z M4.563,17.466l9.623-3.849v30.234l-9.623,3.851V17.466z M15.667,13.646l8.883,3.807
	v30.218l-8.883-3.804V13.646z M26.031,17.453l8.881-3.807v30.221l-8.881,3.804V17.453z M46.017,47.701l-9.623-3.851V13.686
	l9.623,4.49V47.701z"/>
<path fill="#FFFFFF" d="M25.29,26.459c0,0-15.394-11.407-8.363-19.896c0,0,1.719-3.958,7.761-4.792c0,0,7.291-0.678,9.844,6.458
	C34.531,8.229,39.955,13.907,25.29,26.459z"/>
<g>
	<g>
		<path fill="#F8961D" stroke="#F89620" stroke-miterlimit="10" d="M34.575,5.28c-2.137-3.09-5.521-4.864-9.285-4.864
			c-3.764,0-7.148,1.773-9.283,4.864c-2.125,3.075-2.615,6.967-1.315,10.406c0.347,0.939,0.9,1.852,1.639,2.707l8.214,9.648
			c0.186,0.219,0.458,0.346,0.744,0.346c0.287,0,0.559-0.127,0.745-0.346l8.212-9.646c0.742-0.86,1.295-1.771,1.64-2.703
			C37.188,12.248,36.699,8.355,34.575,5.28z M34.055,15.007c-0.267,0.719-0.701,1.429-1.291,2.113c0,0.001-0.004,0.003-0.004,0.005
			L25.29,25.9l-7.474-8.78c-0.589-0.683-1.023-1.394-1.292-2.119c-1.075-2.843-0.667-6.062,1.093-8.608
			c1.765-2.555,4.562-4.02,7.673-4.02c3.112,0,5.911,1.465,7.675,4.02C34.725,8.939,35.133,12.156,34.055,15.007z"/>
	</g>
</g>
<g>
	<g>
		<path fill="#F8961D" d="M25.29,6.22c-3.019,0-5.476,2.457-5.476,5.476c0,3.02,2.457,5.477,5.476,5.477
			c3.021,0,5.477-2.457,5.477-5.477C30.767,8.677,28.311,6.22,25.29,6.22z M25.29,15.217c-1.941,0-3.52-1.58-3.52-3.521
			s1.579-3.521,3.52-3.521c1.941,0,3.521,1.58,3.521,3.521S27.231,15.217,25.29,15.217z"/>
	</g>
</g>
</svg>
